# xmcd
#
# Track frame offsets: 
#        150
#        25724
#        41640
#        64282
#        88787
#        107955
#        120454
#        133001
#        146836
#        156775
#        167273
#        184883
#        196031
#        207255
#        234846
#        253091
#        270576
#        281200
#        308197
#        323384
#
# Disc length: 4465 seconds
#
# Revision: 2
# Processed by: cddbd v1.5.2PL0 Copyright (c) Steve Scherf et al.
# Submitted via: ExactAudioCopy v1.0b3
#
DISCID=1a116f14
DTITLE=Various Artist - Beautiful Bossa Nova CD2
DYEAR=2005
DGENRE=Jazz
TTITLE0=Stan Getz and Laurindo Almeida - Menina Moca (Young Lady)
TTITLE1=Astrud Gilberto - Goodbye Sadness (Tristeza)
TTITLE2=Till Bronner - Antonio's Song
TTITLE3=Stan Getz, Joao Gilberto, Astrud Gilberto and Antonio Carlos Job
TTITLE3=im - O Grande Amor
TTITLE4=Astrud Gilberto and Antonio Carlos Jobim - Quiet Nights Of Quiet
TTITLE4=Stars (Corcovado)
TTITLE5=Quincy Jones and Lalo Schifrin - Soul Bossa Nova
TTITLE6=Tamba Trio - Mas Que Nada
TTITLE7=Walter Wanderley - Music To Watch Girls By
TTITLE8=Kenyon Hopkins - Hard Latin
TTITLE9=Antonio Corlos Jobim and Claus Ogerman - Look To The Sky
TTITLE10=George Benson - Carnival Joys
TTITLE11=Tamba Trio - Influenica Do Jazz
TTITLE12=Luiz Bonfa - Quebra Mar (The Sea Wall)
TTITLE13=Jimmy Smith and Wes Montgomery - OGD (Road Song)
TTITLE14=Joe Pass - Ei Gento
TTITLE15=Oscar Peterson - Samba de Orfeo
TTITLE16=Jacky and Roy - Samba Tristie
TTITLE17=Baden Powell - Feitnha Pro Poeta
TTITLE18=Sergio Mendes Trio - Inutil Paisagem
TTITLE19=Os Cariocas - Samva Do Aviao
EXTD=YEAR: 2005
EXTT0=
EXTT1=
EXTT2=
EXTT3=
EXTT4=
EXTT5=
EXTT6=
EXTT7=
EXTT8=
EXTT9=
EXTT10=
EXTT11=
EXTT12=
EXTT13=
EXTT14=
EXTT15=
EXTT16=
EXTT17=
EXTT18=
EXTT19=
PLAYORDER=
